<?xml version="1.0" standalone="no"?>
<!DOCTYPE svg PUBLIC "-//W3C//DTD SVG 20010904//EN"
 "http://www.w3.org/TR/2001/REC-SVG-20010904/DTD/svg10.dtd">
<svg version="1.0" xmlns="http://www.w3.org/2000/svg"
 width="512.000000pt" height="512.000000pt" viewBox="0 0 512.000000 512.000000"
 preserveAspectRatio="xMidYMid meet">

<g transform="translate(0.000000,512.000000) scale(0.100000,-0.100000)"
fill="#000000" stroke="none">
<path fill="#BBBBCC" d="M2375 5114 c-386 -37 -677 -121 -993 -284 -482 -250 -871 -647 -1112
-1135 -93 -187 -136 -302 -185 -486 -60 -232 -78 -373 -79 -629 0 -128 5 -266
12 -320 55 -410 183 -763 398 -1093 l72 -111 -159 -469 c-88 -259 -158 -471
-156 -473 2 -2 220 66 486 151 266 85 487 155 492 155 4 0 45 -23 91 -52 46
-28 142 -80 213 -114 647 -309 1386 -336 2048 -73 750 297 1326 948 1532 1730
63 240 78 371 78 649 0 278 -15 409 -78 649 -242 917 -977 1630 -1905 1847
-156 36 -318 55 -515 58 -110 2 -218 2 -240 0z m-610 -1186 c17 -9 40 -33 52
-55 29 -53 273 -638 280 -674 9 -45 -36 -122 -135 -234 -104 -117 -126 -154
-117 -196 17 -76 248 -383 391 -518 221 -209 555 -408 704 -419 77 -5 104 16
222 172 53 71 109 142 126 158 38 39 95 47 160 23 82 -31 585 -276 621 -303
l34 -25 -6 -106 c-14 -272 -110 -413 -362 -536 -240 -117 -428 -114 -795 13
-494 171 -755 334 -1110 691 -178 178 -304 329 -448 536 -238 340 -329 603
-302 870 22 214 97 372 248 523 73 73 168 103 312 98 61 -2 106 -8 125 -18z"/>
</g>
</svg>
